<svg width="144" height="49" viewBox="0 0 144 49" fill="none" xmlns="http://www.w3.org/2000/svg">
<path d="M131.09 36.9512C135.156 36.9512 139.07 35.1723 141.509 31.8686C143.187 29.5813 144 26.6842 144 23.8379C144 20.9916 143.187 18.0945 141.509 15.8073C139.07 12.5035 135.207 10.7246 131.09 10.7246C127.024 10.7246 123.11 12.5035 120.671 15.8073C118.993 18.0945 118.18 20.9916 118.18 23.8379C118.18 26.6842 118.993 29.5813 120.671 31.8686C123.161 35.1723 127.024 36.9512 131.09 36.9512ZM124.838 20.8391C125.804 17.9928 128.04 15.7565 131.141 15.7565C134.241 15.7565 136.478 18.0437 137.443 20.8391C137.748 21.754 137.952 22.8214 137.952 23.8379C137.952 24.8545 137.748 25.9726 137.443 26.8367C136.478 29.683 134.241 31.9194 131.141 31.9194C128.04 31.9194 125.804 29.6322 124.838 26.8367C124.533 25.9218 124.33 24.8545 124.33 23.8379C124.33 22.8214 124.533 21.7032 124.838 20.8391Z" fill="#F37021"/>
<path d="M37.6194 37.0527H41.9397C42.3463 37.0527 42.7021 36.697 42.7021 36.2903V0.762402C42.7021 0.355788 42.3463 0 41.9397 0H37.6194C37.2128 0 36.857 0.355788 36.857 0.762402V36.2903C36.857 36.697 37.2128 37.0527 37.6194 37.0527Z" fill="#F37021"/>
<path d="M27.4542 37.0527H31.7745C32.1811 37.0527 32.5369 36.697 32.5369 36.2903V0.762402C32.5369 0.355788 32.1811 0 31.7745 0H27.4542C27.0476 0 26.6918 0.355788 26.6918 0.762402V36.2903C26.6918 36.697 27.0476 37.0527 27.4542 37.0527Z" fill="#F37021"/>
<path d="M103.288 37.0529H107.608C108.015 37.0529 108.37 36.6972 108.37 36.2905V21.8049C108.37 17.2813 111.369 15.0958 116.249 16.1123C116.859 16.2139 117.265 15.909 117.265 15.2482V12.1986C117.265 11.4362 117.214 11.1313 116.604 10.9788C115.791 10.7755 114.063 10.6738 113.606 10.6738C110.454 10.6738 107.659 11.9445 105.727 13.8759C104.304 15.2991 102.525 17.5355 102.525 21.3983V36.2905C102.525 36.6972 102.881 37.0529 103.288 37.0529Z" fill="#F37021"/>
<path d="M85.9049 36.9512C88.5988 36.9512 91.1401 36.1888 93.3257 34.7149V37.8661C93.3257 42.1864 89.5645 42.9488 87.1248 43.1013C85.4983 43.2029 83.2111 42.9996 82.1438 42.8471C81.483 42.7455 81.0256 42.8471 81.0256 43.5587V47.3707C81.0256 47.6757 81.2289 47.9807 81.6863 47.9807C87.2773 48.4381 91.0385 48.3365 93.8848 46.7608C95.9178 45.5918 97.2902 43.7112 98.0017 41.5256C98.51 39.95 98.7133 37.9678 98.7133 36.2905V23.8379C98.7133 20.9916 97.9509 18.1453 96.2228 15.8073C93.7831 12.5035 89.9203 10.7246 85.8033 10.7246C81.7372 10.7246 77.8235 12.5035 75.3838 15.8073C72.0801 20.3817 72.0292 27.2941 75.3838 31.8686C77.9251 35.1723 81.788 36.9512 85.9049 36.9512ZM79.6024 20.8391C80.5173 17.9928 82.8045 15.7565 85.9049 15.7565C92.8682 15.7565 93.0715 22.8214 93.0715 23.8379C93.0715 24.8545 92.8174 31.9702 85.9049 31.9702C82.8045 31.9702 80.5681 29.683 79.6024 26.8875C79.2975 25.9726 79.0942 24.9053 79.0942 23.8888C79.0942 22.8214 79.2975 21.7032 79.6024 20.8391Z" fill="#F37021"/>
<path d="M58.9159 36.9513C63.0837 37.1038 65.8284 36.3922 67.9123 35.1723C68.3189 34.9182 68.4205 34.6641 68.4205 33.9017V30.5471C68.4205 29.8355 68.0139 29.5306 67.3532 29.9372C65.1168 31.3603 62.423 32.2244 58.9668 31.9703C55.5105 31.7161 52.6642 29.2764 52.3593 25.871H69.4371C69.7929 25.871 70.0978 25.5661 70.1487 25.1595C70.4536 20.4834 69.0813 10.6738 58.611 10.6738C50.9361 10.6738 47.5815 15.8582 46.4634 20.1784C46.1584 21.3475 46.0059 22.5673 46.0059 23.7871C46.0059 26.6334 46.8191 29.5306 48.4964 31.8178C50.9361 35.1724 54.799 36.7988 58.9159 36.9513ZM58.5602 15.7565C61.1015 15.7565 64.0494 17.1797 64.0494 21.2966H52.4101C52.4609 19.3652 54.0366 15.7565 58.5602 15.7565Z" fill="#F37021"/>
<path d="M2.59981 35.1215C4.2771 36.443 6.51348 37.0529 9.30896 37.0529H11.342H22.0157C22.4223 37.0529 22.7781 36.6972 22.7781 36.2905V28.9207V21.195C22.7781 17.7387 22.0157 15.1466 20.3892 13.3676C18.6611 11.5379 15.4082 10.6738 12.3586 10.6738C9.30896 10.6738 6.15769 11.4871 3.56552 13.0119C3.41304 13.1135 3.31139 13.3168 3.31139 13.4693V13.5201L3.56552 17.2813C3.61635 17.7896 4.22627 17.9421 4.68372 17.6879C8.4449 15.3499 12.9685 14.8925 15.2557 16.0615C16.8821 16.8747 17.2888 18.6028 17.2888 19.6702V20.2293H10.9862C8.29242 20.2293 0.00764317 21.195 0.00764317 28.819V28.8698V28.9207V28.9715C-0.0940105 31.6653 0.820875 33.7492 2.59981 35.1215ZM11.2404 24.9053H17.1871V28.9715V32.4277H11.342H9.66474C8.6482 32.3769 7.78416 32.1227 7.02175 31.5128C6.1577 30.8521 5.75108 30.0897 5.75108 29.0223C5.75108 29.0223 5.75108 29.0223 5.75108 28.9715C5.75108 27.5992 6.66596 24.9053 11.2404 24.9053Z" fill="#F37021"/>
</svg>
