<svg width="107" height="18" viewBox="0 0 107 18" fill="none" xmlns="http://www.w3.org/2000/svg">
<path d="M46.472 13.0393C47.9115 13.0336 49.2866 12.4127 50.1458 11.2328C50.7408 10.4211 51.0185 9.39591 51.0185 8.39785C51.0185 7.39979 50.7408 6.37577 50.1458 5.56287C49.2866 4.38982 47.9115 3.76772 46.472 3.76321C45.0324 3.75869 43.6595 4.38982 42.797 5.56287C42.2276 6.39867 41.9231 7.38654 41.9231 8.39785C41.9231 9.40916 42.2276 10.397 42.797 11.2328C43.6595 12.407 45.0313 13.028 46.472 13.0393ZM44.2523 7.33883C44.5842 6.34303 45.3813 5.54707 46.472 5.54142C47.5626 5.53578 48.3586 6.34303 48.6927 7.33883C48.929 8.02894 48.929 8.77805 48.6927 9.46817C48.354 10.4651 47.5637 11.2611 46.472 11.2667C45.3802 11.2723 44.5842 10.4651 44.2523 9.46817C44.016 8.77805 44.016 8.02894 44.2523 7.33883Z" fill="#EE7203"/>
<path d="M13.4504 13.073H14.9769C15.0468 13.0724 15.1136 13.0444 15.163 12.9949C15.2125 12.9455 15.2405 12.8787 15.2411 12.8088V0.264195C15.2405 0.194309 15.2125 0.127452 15.163 0.0780339C15.1136 0.0286156 15.0468 0.000589783 14.9769 0H13.4504C13.4158 -3.19034e-07 13.3815 0.00684143 13.3495 0.0201321C13.3175 0.0334228 13.2885 0.0529008 13.264 0.0774482C13.2396 0.101995 13.2202 0.131129 13.2071 0.163176C13.1939 0.195223 13.1872 0.229554 13.1874 0.264195V12.8088C13.1872 12.8434 13.1939 12.8778 13.2071 12.9098C13.2202 12.9418 13.2396 12.971 13.264 12.9955C13.2885 13.0201 13.3175 13.0396 13.3495 13.0528C13.3815 13.0661 13.4158 13.073 13.4504 13.073Z" fill="#EE7203"/>
<path d="M9.86567 13.073H11.3921C11.4619 13.0724 11.5286 13.0443 11.5779 12.9949C11.6271 12.9454 11.6549 12.8786 11.6552 12.8088V0.264195C11.6549 0.194413 11.6271 0.127556 11.5779 0.0781062C11.5286 0.0286568 11.4619 0.000593275 11.3921 0H9.86567C9.83102 -3.19034e-07 9.79672 0.00684143 9.76473 0.0201321C9.73274 0.0334228 9.70369 0.0529008 9.67925 0.0774482C9.65481 0.101995 9.63546 0.131129 9.6223 0.163176C9.60915 0.195223 9.60245 0.229554 9.6026 0.264195V12.8088C9.60245 12.8434 9.60915 12.8778 9.6223 12.9098C9.63546 12.9418 9.65481 12.971 9.67925 12.9955C9.70369 13.0201 9.73274 13.0396 9.76473 13.0528C9.79672 13.0661 9.83102 13.073 9.86567 13.073Z" fill="#EE7203"/>
<path d="M36.6428 13.073H38.1692C38.2394 13.073 38.3067 13.0452 38.3564 12.9957C38.4062 12.9462 38.4343 12.879 38.4346 12.8088V7.68757C38.4346 6.09226 39.4947 5.32678 41.2199 5.68242C41.2647 5.69721 41.3126 5.70027 41.359 5.6913C41.4054 5.68233 41.4487 5.66163 41.4848 5.63118C41.5209 5.60073 41.5486 5.56154 41.5653 5.51735C41.5819 5.47316 41.587 5.42543 41.58 5.37872V4.31292C41.58 4.03969 41.554 3.9313 41.3542 3.87372C41.0053 3.80861 40.6512 3.77498 40.2963 3.77324C39.2537 3.76803 38.2511 4.17364 37.5054 4.90227C37.003 5.40355 36.3763 6.18935 36.3763 7.56112V12.8167C36.3766 12.8865 36.4044 12.9534 36.4536 13.0028C36.5029 13.0523 36.5696 13.0803 36.6394 13.0809" fill="#EE7203"/>
<path d="M30.5008 13.039C31.4323 13.0412 32.3433 12.7661 33.1179 12.2487V13.3698C33.1179 14.8929 31.7856 15.1683 30.9343 15.2214C30.3493 15.2396 29.7638 15.2071 29.1843 15.1243C28.9518 15.0904 28.7869 15.1243 28.7869 15.3738V16.7287C28.7869 16.828 28.8637 16.9353 29.0274 16.9545C31.0032 17.1249 32.3355 17.0877 33.338 16.5198C34.0392 16.1057 34.5596 15.4438 34.7967 14.6648C34.975 14.0633 35.0603 13.4382 35.0496 12.8109V8.40774C35.0687 7.39243 34.7629 6.39758 34.1769 5.56824C33.3177 4.39519 31.9437 3.77309 30.503 3.76858C29.0624 3.76406 27.6895 4.39519 26.8281 5.56824C25.6528 7.17597 25.6516 9.63273 26.8281 11.2382C27.6895 12.4124 29.0635 13.0345 30.503 13.0446M28.2823 7.33855C28.6131 6.34275 29.4056 5.54115 30.5008 5.54115C32.9542 5.54115 33.0366 8.04306 33.0366 8.40435C33.0366 8.76564 32.9542 11.2664 30.5008 11.2664C29.4056 11.2664 28.6131 10.4648 28.2823 9.4679C28.0444 8.77804 28.0444 8.02841 28.2823 7.33855Z" fill="#EE7203"/>
<path d="M20.9672 13.0392C22.435 13.0945 23.4116 12.8416 24.1443 12.4182C24.2888 12.3358 24.3204 12.2353 24.3204 11.9666V10.7856C24.3204 10.5429 24.1748 10.4322 23.949 10.5768C23.0728 11.1412 22.0317 11.3934 20.9943 11.2926C19.7727 11.1977 18.7668 10.3419 18.6697 9.1316H24.693C24.7253 9.13175 24.7573 9.12552 24.7871 9.11328C24.817 9.10103 24.8441 9.08301 24.867 9.06024C24.8899 9.03748 24.908 9.01042 24.9204 8.98062C24.9328 8.95082 24.9391 8.91887 24.9391 8.8866C25.0385 7.2371 24.5643 3.771 20.8555 3.771C18.1458 3.771 16.9694 5.59324 16.5731 7.1321C16.4682 7.54806 16.4158 7.97553 16.4173 8.40451C16.4173 9.40144 16.6961 10.4266 17.29 11.2384C18.1503 12.4114 19.5266 12.985 20.9638 13.0448M20.8509 5.54921C21.7395 5.54921 22.7838 6.05727 22.7838 7.50581H18.6877C18.6877 6.82839 19.2522 5.54921 20.8588 5.54921" fill="#EE7203"/>
<path d="M1.08525 12.3956C1.66896 12.8563 2.46605 13.073 3.4562 13.073H7.94633C8.0164 13.073 8.0836 13.0452 8.13314 12.9957C8.18269 12.9461 8.21052 12.8789 8.21052 12.8088V10.2121V7.48775C8.21052 6.27518 7.94069 5.34261 7.35924 4.7239C6.75521 4.0781 5.60699 3.77326 4.52539 3.77326C3.43429 3.76813 2.36135 4.05253 1.41606 4.59745C1.38694 4.61505 1.36289 4.63991 1.34626 4.66959C1.32964 4.69928 1.32101 4.73278 1.32122 4.7668V4.77922L1.40364 6.11486C1.41606 6.2955 1.62944 6.35421 1.79202 6.25147C3.12314 5.42503 4.72071 5.27148 5.52909 5.67792C6.0936 5.9647 6.24828 6.56873 6.24828 6.95937V7.15469H4.0241C3.07008 7.15469 0.144775 7.4934 0.144775 10.2031V10.2471C0.144775 11.1706 0.460901 11.9147 1.0909 12.4035M4.13926 8.79065H6.24376V11.4258H3.58604C3.24545 11.4159 2.91637 11.3003 2.64443 11.095C2.50481 10.9971 2.39134 10.8664 2.31397 10.7145C2.23661 10.5625 2.19773 10.3939 2.20073 10.2234V10.2132C2.20863 9.73338 2.53266 8.78387 4.13813 8.78387" fill="#EE7203"/>
<path d="M100.973 1.47681C97.9748 1.47681 95.5451 3.96066 95.5451 6.96161C95.5451 10.9211 100.973 15.9328 100.973 15.9328C101.287 15.6461 106.402 10.938 106.402 6.96161C106.402 3.96405 103.971 1.47681 100.973 1.47681Z" fill="#EE7203"/>
<path d="M69.0797 4.01266C68.811 4.01251 68.5474 4.08613 68.3177 4.22549C68.0879 4.36485 67.9008 4.5646 67.7768 4.80298L65.9704 8.31086L64.1481 4.79959C64.0243 4.56156 63.8376 4.36202 63.6082 4.22269C63.3789 4.08335 63.1158 4.00954 62.8475 4.00928C62.4582 4.00928 62.0849 4.16391 61.8097 4.43917C61.5344 4.71442 61.3798 5.08774 61.3798 5.47701V11.7928C61.3798 12.0703 61.49 12.3366 61.6863 12.5328C61.8826 12.7291 62.1488 12.8394 62.4264 12.8394C62.7039 12.8394 62.9702 12.7291 63.1664 12.5328C63.3627 12.3366 63.473 12.0703 63.473 11.7928V7.27667L65.1541 10.6829C65.2288 10.8338 65.3441 10.9609 65.4872 11.0497C65.6302 11.1385 65.7952 11.1855 65.9636 11.1855C66.132 11.1855 66.297 11.1385 66.44 11.0497C66.5831 10.9609 66.6984 10.8338 66.7731 10.6829L68.4542 7.27667V11.7928C68.4631 12.0645 68.5774 12.3222 68.7728 12.5113C68.9682 12.7004 69.2295 12.8061 69.5014 12.8061C69.7733 12.8061 70.0346 12.7004 70.23 12.5113C70.4254 12.3222 70.5396 12.0645 70.5486 11.7928V5.47927C70.5486 5.09 70.3939 4.71668 70.1187 4.44142C69.8434 4.16617 69.4701 4.01153 69.0808 4.01153" fill="#662483"/>
<path d="M76.6938 5.05688C76.5777 4.74997 76.371 4.48566 76.101 4.29913C75.8311 4.11261 75.5107 4.0127 75.1826 4.0127C74.8545 4.0127 74.5341 4.11261 74.2642 4.29913C73.9942 4.48566 73.7874 4.74997 73.6714 5.05688L71.2542 11.4415C71.1607 11.6992 71.1735 11.9834 71.2896 12.2317C71.4058 12.4799 71.6158 12.6719 71.8734 12.7653C72.1311 12.8587 72.4153 12.846 72.6636 12.7298C72.9118 12.6137 73.1038 12.4037 73.1972 12.146L73.6624 10.798H76.7017L77.168 12.146C77.2614 12.4038 77.4534 12.614 77.7018 12.7302C77.9501 12.8465 78.2345 12.8593 78.4923 12.7659C78.7501 12.6724 78.9603 12.4804 79.0765 12.2321C79.1928 11.9837 79.2056 11.6993 79.1122 11.4415L76.6938 5.05688ZM74.3059 8.9317L75.1888 6.37107L76.0717 8.9317H74.3059Z" fill="#662483"/>
<path d="M93.6878 4.0127H88.3159C88.0683 4.0127 87.8308 4.11107 87.6557 4.28617C87.4806 4.46128 87.3822 4.69876 87.3822 4.9464C87.3822 5.19403 87.4806 5.43152 87.6557 5.60663C87.8308 5.78173 88.0683 5.8801 88.3159 5.8801H89.9428V11.7883C89.9382 11.9294 89.962 12.0701 90.0128 12.2019C90.0637 12.3336 90.1405 12.4538 90.2387 12.5553C90.3369 12.6568 90.4545 12.7375 90.5846 12.7926C90.7146 12.8477 90.8544 12.8761 90.9956 12.8761C91.1369 12.8761 91.2767 12.8477 91.4067 12.7926C91.5367 12.7375 91.6544 12.6568 91.7526 12.5553C91.8508 12.4538 91.9276 12.3336 91.9784 12.2019C92.0293 12.0701 92.0531 11.9294 92.0485 11.7883V5.8801H93.6878C93.9354 5.8801 94.1729 5.78173 94.348 5.60663C94.5231 5.43152 94.6215 5.19403 94.6215 4.9464C94.6215 4.69876 94.5231 4.46128 94.348 4.28617C94.1729 4.11107 93.9354 4.0127 93.6878 4.0127Z" fill="#662483"/>
<path d="M84.0143 4.01379H81.1443C80.8431 4.01379 80.5542 4.13346 80.3412 4.34646C80.1282 4.55947 80.0085 4.84836 80.0085 5.14959V11.795C80.0085 12.0726 80.1188 12.3388 80.3151 12.5351C80.5114 12.7314 80.7776 12.8416 81.0552 12.8416C81.3327 12.8416 81.5989 12.7314 81.7952 12.5351C81.9915 12.3388 82.1018 12.0726 82.1018 11.795V9.7515H83.3019L85.3669 12.442C85.4413 12.5472 85.5359 12.6365 85.6452 12.7047C85.7545 12.7729 85.8763 12.8186 86.0035 12.8391C86.1307 12.8597 86.2607 12.8547 86.3859 12.8243C86.5111 12.794 86.629 12.739 86.7327 12.6626C86.8364 12.5861 86.9239 12.4898 86.9899 12.3791C87.0559 12.2685 87.0991 12.1458 87.1171 12.0182C87.1352 11.8906 87.1275 11.7607 87.0947 11.6362C87.0619 11.5116 87.0046 11.3948 86.9261 11.2926L85.5295 9.52569C86.6179 9.13731 87.1169 8.24651 87.1169 6.90974V6.85893C87.1169 5.01749 86.1583 4.00928 84.0143 4.00928M82.095 5.87555H83.7885C84.6466 5.87555 84.974 6.2662 84.974 6.89732C84.974 7.50248 84.6838 7.89312 83.9025 7.89312H82.0961L82.095 5.87555Z" fill="#662483"/>
<path d="M57.7059 7.45507C55.8994 7.07685 55.6522 6.95152 55.6522 6.55185C55.6522 6.00992 56.1557 5.66896 56.9629 5.66896C57.6235 5.65704 58.2748 5.8261 58.8462 6.15782L58.8586 6.16573C59.0591 6.29756 59.3031 6.34587 59.5387 6.30036C59.7743 6.25484 59.9828 6.1191 60.1197 5.92208C60.2567 5.72505 60.3112 5.48233 60.2718 5.24565C60.2323 5.00897 60.102 4.79706 59.9086 4.65509C59.1533 4.12784 58.1134 3.83203 56.9867 3.83203C54.9205 3.83203 53.5341 4.96106 53.5341 6.65459C53.5341 8.05345 54.5502 8.85958 56.71 9.30102C58.1213 9.57764 58.3855 9.74135 58.3855 10.2584C58.3855 10.823 57.8436 11.191 56.9991 11.191C56.2333 11.1879 55.4904 10.9296 54.8878 10.4571C54.7963 10.3789 54.6903 10.3194 54.5758 10.282C54.4614 10.2447 54.3407 10.2303 54.2206 10.2397C54.1006 10.249 53.9836 10.2819 53.8762 10.3364C53.7689 10.391 53.6734 10.4661 53.5951 10.5576C53.5168 10.6491 53.4573 10.7551 53.42 10.8696C53.3827 10.9841 53.3682 11.1048 53.3776 11.2248C53.3869 11.3448 53.4198 11.4619 53.4744 11.5692C53.5289 11.6765 53.6041 11.7721 53.6956 11.8504L53.7046 11.8583C54.5785 12.6079 55.773 13.0302 57.0634 13.0302C59.1171 13.0302 60.5544 11.8583 60.5544 10.1444C60.5544 8.70716 59.685 7.86265 57.7059 7.45959" fill="#662483"/>
<path d="M100.941 12.6684C100.653 12.6677 100.372 12.5815 100.133 12.4206C99.8939 12.2598 99.7081 12.0315 99.5992 11.7649C99.4902 11.4983 99.4629 11.2053 99.5208 10.9232C99.5786 10.641 99.719 10.3824 99.9241 10.1802C100.129 9.97798 100.39 9.84125 100.673 9.78737C100.956 9.7335 101.248 9.7649 101.513 9.8776C101.778 9.9903 102.004 10.1792 102.161 10.4204C102.319 10.6615 102.401 10.944 102.398 11.232C102.394 11.6153 102.239 11.9815 101.966 12.2506C101.693 12.5197 101.324 12.6699 100.941 12.6684Z" fill="white"/>
<path d="M102.004 8.70469L99.9313 8.69001L99.0021 3.62183L103.005 3.65005L102.004 8.70469Z" fill="white"/>
</svg>
